<mxfile host="app.diagrams.net" agent="Mozilla/5.0 (Windows NT 10.0; Win64; x64) AppleWebKit/537.36 (KHTML, like Gecko) Chrome/138.0.0.0 Safari/537.36" version="28.0.4">
  <diagram name="Page-1" id="fSiOuxlbwGA_ytTPQLYN">
    <mxGraphModel dx="2722" dy="996" grid="0" gridSize="10" guides="1" tooltips="1" connect="1" arrows="1" fold="1" page="0" pageScale="1" pageWidth="850" pageHeight="1100" background="none" math="0" shadow="1">
      <root>
        <mxCell id="0" />
        <mxCell id="1" parent="0" />
        <mxCell id="4KFAD_NUksjX8W6mWiC6-4" value="&lt;p style=&quot;margin:0px;margin-top:4px;text-align:center;&quot;&gt;&lt;/p&gt;&lt;div style=&quot;text-align: center; height: 2px;&quot;&gt;&lt;b&gt;&lt;font style=&quot;font-size: 18px;&quot;&gt;Librarian&lt;/font&gt;&lt;/b&gt;&lt;/div&gt;" style="verticalAlign=top;align=left;overflow=fill;html=1;whiteSpace=wrap;" parent="1" vertex="1">
          <mxGeometry x="64" y="45" width="315" height="1044" as="geometry" />
        </mxCell>
        <mxCell id="4KFAD_NUksjX8W6mWiC6-8" value="&lt;p style=&quot;margin: 4px 0px 0px;&quot;&gt;&lt;span style=&quot;font-size: 18px;&quot;&gt;&lt;b&gt;Library Management System&lt;/b&gt;&lt;/span&gt;&lt;/p&gt;" style="verticalAlign=top;align=center;overflow=fill;html=1;whiteSpace=wrap;" parent="1" vertex="1">
          <mxGeometry x="379" y="45" width="345" height="1044" as="geometry" />
        </mxCell>
        <mxCell id="4KFAD_NUksjX8W6mWiC6-11" value="Start" style="rounded=0;whiteSpace=wrap;html=1;fillColor=#ffcd28;gradientColor=#ffa500;strokeColor=#d79b00;glass=1;gradientDirection=north;" parent="1" vertex="1">
          <mxGeometry x="169.25" y="151" width="95.5" height="45" as="geometry" />
        </mxCell>
        <mxCell id="4KFAD_NUksjX8W6mWiC6-25" style="edgeStyle=orthogonalEdgeStyle;rounded=0;orthogonalLoop=1;jettySize=auto;html=1;exitX=0.5;exitY=1;exitDx=0;exitDy=0;entryX=0.5;entryY=0;entryDx=0;entryDy=0;" parent="1" source="4KFAD_NUksjX8W6mWiC6-12" target="4KFAD_NUksjX8W6mWiC6-19" edge="1">
          <mxGeometry relative="1" as="geometry" />
        </mxCell>
        <mxCell id="4KFAD_NUksjX8W6mWiC6-12" value="Display Log-in Form" style="rounded=1;whiteSpace=wrap;html=1;fillColor=#dae8fc;gradientColor=#7ea6e0;strokeColor=#6c8ebf;" parent="1" vertex="1">
          <mxGeometry x="520" y="146.5" width="103" height="49.5" as="geometry" />
        </mxCell>
        <mxCell id="4KFAD_NUksjX8W6mWiC6-16" value="" style="endArrow=classic;html=1;rounded=0;exitX=1;exitY=0.5;exitDx=0;exitDy=0;entryX=0;entryY=0.5;entryDx=0;entryDy=0;" parent="1" source="4KFAD_NUksjX8W6mWiC6-11" target="4KFAD_NUksjX8W6mWiC6-12" edge="1">
          <mxGeometry width="50" height="50" relative="1" as="geometry">
            <mxPoint x="353" y="415" as="sourcePoint" />
            <mxPoint x="403" y="365" as="targetPoint" />
          </mxGeometry>
        </mxCell>
        <mxCell id="4KFAD_NUksjX8W6mWiC6-29" style="edgeStyle=orthogonalEdgeStyle;rounded=0;orthogonalLoop=1;jettySize=auto;html=1;entryX=0.5;entryY=0;entryDx=0;entryDy=0;" parent="1" source="4KFAD_NUksjX8W6mWiC6-19" target="4KFAD_NUksjX8W6mWiC6-20" edge="1">
          <mxGeometry relative="1" as="geometry" />
        </mxCell>
        <mxCell id="4KFAD_NUksjX8W6mWiC6-19" value="Encode Username &amp;amp; Password Inputs" style="rounded=1;whiteSpace=wrap;html=1;fillColor=#dae8fc;gradientColor=#7ea6e0;strokeColor=#6c8ebf;" parent="1" vertex="1">
          <mxGeometry x="169.25" y="241" width="95.5" height="45" as="geometry" />
        </mxCell>
        <mxCell id="4KFAD_NUksjX8W6mWiC6-30" style="edgeStyle=orthogonalEdgeStyle;rounded=0;orthogonalLoop=1;jettySize=auto;html=1;entryX=0.5;entryY=1;entryDx=0;entryDy=0;" parent="1" source="4KFAD_NUksjX8W6mWiC6-20" target="4KFAD_NUksjX8W6mWiC6-19" edge="1">
          <mxGeometry relative="1" as="geometry" />
        </mxCell>
        <mxCell id="4KFAD_NUksjX8W6mWiC6-36" value="No" style="edgeLabel;html=1;align=center;verticalAlign=middle;resizable=0;points=[];" parent="4KFAD_NUksjX8W6mWiC6-30" vertex="1" connectable="0">
          <mxGeometry x="0.0278" y="-2" relative="1" as="geometry">
            <mxPoint as="offset" />
          </mxGeometry>
        </mxCell>
        <mxCell id="4KFAD_NUksjX8W6mWiC6-33" style="edgeStyle=orthogonalEdgeStyle;rounded=0;orthogonalLoop=1;jettySize=auto;html=1;exitX=0.5;exitY=1;exitDx=0;exitDy=0;entryX=0.5;entryY=0;entryDx=0;entryDy=0;" parent="1" source="4KFAD_NUksjX8W6mWiC6-20" target="4KFAD_NUksjX8W6mWiC6-32" edge="1">
          <mxGeometry relative="1" as="geometry" />
        </mxCell>
        <mxCell id="4KFAD_NUksjX8W6mWiC6-35" value="Yes" style="edgeLabel;html=1;align=center;verticalAlign=middle;resizable=0;points=[];" parent="4KFAD_NUksjX8W6mWiC6-33" vertex="1" connectable="0">
          <mxGeometry x="-0.1214" y="4" relative="1" as="geometry">
            <mxPoint as="offset" />
          </mxGeometry>
        </mxCell>
        <mxCell id="4KFAD_NUksjX8W6mWiC6-20" value="valid Input" style="rhombus;whiteSpace=wrap;html=1;fillColor=#f0a30a;strokeColor=#BD7000;shadow=0;fontColor=#000000;" parent="1" vertex="1">
          <mxGeometry x="543" y="290" width="70.5" height="70" as="geometry" />
        </mxCell>
        <mxCell id="4KFAD_NUksjX8W6mWiC6-52" style="edgeStyle=orthogonalEdgeStyle;rounded=0;orthogonalLoop=1;jettySize=auto;html=1;entryX=1;entryY=0.5;entryDx=0;entryDy=0;" parent="1" source="4KFAD_NUksjX8W6mWiC6-32" target="4KFAD_NUksjX8W6mWiC6-37" edge="1">
          <mxGeometry relative="1" as="geometry" />
        </mxCell>
        <mxCell id="4KFAD_NUksjX8W6mWiC6-32" value="Display Homepage" style="rounded=1;whiteSpace=wrap;html=1;fillColor=#dae8fc;gradientColor=#7ea6e0;strokeColor=#6c8ebf;" parent="1" vertex="1">
          <mxGeometry x="526.75" y="400" width="98.25" height="50" as="geometry" />
        </mxCell>
        <mxCell id="4KFAD_NUksjX8W6mWiC6-56" style="edgeStyle=orthogonalEdgeStyle;rounded=0;orthogonalLoop=1;jettySize=auto;html=1;exitX=0.5;exitY=1;exitDx=0;exitDy=0;entryX=0;entryY=0.5;entryDx=0;entryDy=0;" parent="1" source="4KFAD_NUksjX8W6mWiC6-37" target="4KFAD_NUksjX8W6mWiC6-54" edge="1">
          <mxGeometry relative="1" as="geometry" />
        </mxCell>
        <mxCell id="4KFAD_NUksjX8W6mWiC6-37" value="Add New Books" style="rounded=1;whiteSpace=wrap;html=1;fillColor=#dae8fc;gradientColor=#7ea6e0;strokeColor=#6c8ebf;" parent="1" vertex="1">
          <mxGeometry x="169.25" y="402.25" width="95.5" height="45" as="geometry" />
        </mxCell>
        <mxCell id="4KFAD_NUksjX8W6mWiC6-58" style="edgeStyle=orthogonalEdgeStyle;rounded=0;orthogonalLoop=1;jettySize=auto;html=1;exitX=0.5;exitY=1;exitDx=0;exitDy=0;entryX=0;entryY=0.5;entryDx=0;entryDy=0;" parent="1" source="4KFAD_NUksjX8W6mWiC6-38" target="4KFAD_NUksjX8W6mWiC6-53" edge="1">
          <mxGeometry relative="1" as="geometry" />
        </mxCell>
        <mxCell id="4KFAD_NUksjX8W6mWiC6-38" value="Modify Book Information" style="rounded=1;whiteSpace=wrap;html=1;fillColor=#dae8fc;gradientColor=#7ea6e0;strokeColor=#6c8ebf;" parent="1" vertex="1">
          <mxGeometry x="169.25" y="522" width="95.5" height="45" as="geometry" />
        </mxCell>
        <mxCell id="4KFAD_NUksjX8W6mWiC6-60" style="edgeStyle=orthogonalEdgeStyle;rounded=0;orthogonalLoop=1;jettySize=auto;html=1;exitX=0.5;exitY=1;exitDx=0;exitDy=0;entryX=0;entryY=0.5;entryDx=0;entryDy=0;" parent="1" source="4KFAD_NUksjX8W6mWiC6-39" target="4KFAD_NUksjX8W6mWiC6-55" edge="1">
          <mxGeometry relative="1" as="geometry" />
        </mxCell>
        <mxCell id="4KFAD_NUksjX8W6mWiC6-39" value="Add New User" style="rounded=1;whiteSpace=wrap;html=1;fillColor=#dae8fc;gradientColor=#7ea6e0;strokeColor=#6c8ebf;" parent="1" vertex="1">
          <mxGeometry x="169.25" y="627" width="95.5" height="45" as="geometry" />
        </mxCell>
        <mxCell id="4KFAD_NUksjX8W6mWiC6-67" style="edgeStyle=orthogonalEdgeStyle;rounded=0;orthogonalLoop=1;jettySize=auto;html=1;exitX=0.5;exitY=1;exitDx=0;exitDy=0;entryX=0;entryY=0.5;entryDx=0;entryDy=0;" parent="1" source="4KFAD_NUksjX8W6mWiC6-41" target="4KFAD_NUksjX8W6mWiC6-65" edge="1">
          <mxGeometry relative="1" as="geometry" />
        </mxCell>
        <mxCell id="4KFAD_NUksjX8W6mWiC6-41" value="Request Borrowers Report" style="rounded=1;whiteSpace=wrap;html=1;fillColor=#dae8fc;gradientColor=#7ea6e0;strokeColor=#6c8ebf;" parent="1" vertex="1">
          <mxGeometry x="169.25" y="846" width="108.75" height="45" as="geometry" />
        </mxCell>
        <mxCell id="4KFAD_NUksjX8W6mWiC6-46" style="edgeStyle=orthogonalEdgeStyle;rounded=0;orthogonalLoop=1;jettySize=auto;html=1;entryX=0.5;entryY=0;entryDx=0;entryDy=0;" parent="1" source="4KFAD_NUksjX8W6mWiC6-43" target="4KFAD_NUksjX8W6mWiC6-45" edge="1">
          <mxGeometry relative="1" as="geometry" />
        </mxCell>
        <mxCell id="4KFAD_NUksjX8W6mWiC6-43" value="" style="ellipse;html=1;shape=endState;fillColor=#000000;strokeColor=#ff0000;" parent="1" vertex="1">
          <mxGeometry x="208.63" y="959" width="30" height="26" as="geometry" />
        </mxCell>
        <mxCell id="vdvPGk4LxnIA5zCepxR8-1" value="" style="edgeStyle=orthogonalEdgeStyle;rounded=0;orthogonalLoop=1;jettySize=auto;html=1;" edge="1" parent="1" source="4KFAD_NUksjX8W6mWiC6-45" target="4KFAD_NUksjX8W6mWiC6-43">
          <mxGeometry relative="1" as="geometry" />
        </mxCell>
        <mxCell id="4KFAD_NUksjX8W6mWiC6-45" value="End" style="rounded=1;whiteSpace=wrap;html=1;fillColor=#ffcd28;strokeColor=#d79b00;gradientColor=#ffa500;glass=1;" parent="1" vertex="1">
          <mxGeometry x="175.88" y="1017" width="95.5" height="45" as="geometry" />
        </mxCell>
        <mxCell id="4KFAD_NUksjX8W6mWiC6-51" style="edgeStyle=orthogonalEdgeStyle;rounded=0;orthogonalLoop=1;jettySize=auto;html=1;entryX=0.5;entryY=0;entryDx=0;entryDy=0;" parent="1" source="4KFAD_NUksjX8W6mWiC6-47" target="4KFAD_NUksjX8W6mWiC6-11" edge="1">
          <mxGeometry relative="1" as="geometry" />
        </mxCell>
        <mxCell id="4KFAD_NUksjX8W6mWiC6-47" value="" style="ellipse;html=1;shape=startState;fillColor=#000000;strokeColor=#ff0000;" parent="1" vertex="1">
          <mxGeometry x="202" y="79" width="30" height="30" as="geometry" />
        </mxCell>
        <mxCell id="4KFAD_NUksjX8W6mWiC6-59" style="edgeStyle=orthogonalEdgeStyle;rounded=0;orthogonalLoop=1;jettySize=auto;html=1;exitX=0.5;exitY=1;exitDx=0;exitDy=0;entryX=1;entryY=0.5;entryDx=0;entryDy=0;" parent="1" source="4KFAD_NUksjX8W6mWiC6-53" target="4KFAD_NUksjX8W6mWiC6-39" edge="1">
          <mxGeometry relative="1" as="geometry" />
        </mxCell>
        <mxCell id="4KFAD_NUksjX8W6mWiC6-53" value="Saves -up Book Modifications" style="rounded=1;whiteSpace=wrap;html=1;fillColor=#dae8fc;gradientColor=#7ea6e0;strokeColor=#6c8ebf;" parent="1" vertex="1">
          <mxGeometry x="526.75" y="573" width="95.5" height="45" as="geometry" />
        </mxCell>
        <mxCell id="4KFAD_NUksjX8W6mWiC6-57" style="edgeStyle=orthogonalEdgeStyle;rounded=0;orthogonalLoop=1;jettySize=auto;html=1;exitX=0.5;exitY=1;exitDx=0;exitDy=0;entryX=1;entryY=0.5;entryDx=0;entryDy=0;" parent="1" source="4KFAD_NUksjX8W6mWiC6-54" target="4KFAD_NUksjX8W6mWiC6-38" edge="1">
          <mxGeometry relative="1" as="geometry" />
        </mxCell>
        <mxCell id="4KFAD_NUksjX8W6mWiC6-54" value="Saves-up New Data" style="rounded=1;whiteSpace=wrap;html=1;fillColor=#dae8fc;gradientColor=#7ea6e0;strokeColor=#6c8ebf;" parent="1" vertex="1">
          <mxGeometry x="527.5" y="477" width="95.5" height="45" as="geometry" />
        </mxCell>
        <mxCell id="4KFAD_NUksjX8W6mWiC6-62" style="edgeStyle=orthogonalEdgeStyle;rounded=0;orthogonalLoop=1;jettySize=auto;html=1;exitX=0.5;exitY=1;exitDx=0;exitDy=0;entryX=1;entryY=0.5;entryDx=0;entryDy=0;" parent="1" source="4KFAD_NUksjX8W6mWiC6-55" target="4KFAD_NUksjX8W6mWiC6-61" edge="1">
          <mxGeometry relative="1" as="geometry" />
        </mxCell>
        <mxCell id="4KFAD_NUksjX8W6mWiC6-55" value="Saves-up New User" style="rounded=1;whiteSpace=wrap;html=1;fillColor=#dae8fc;gradientColor=#7ea6e0;strokeColor=#6c8ebf;" parent="1" vertex="1">
          <mxGeometry x="523.75" y="684" width="95.5" height="45" as="geometry" />
        </mxCell>
        <mxCell id="4KFAD_NUksjX8W6mWiC6-64" style="edgeStyle=orthogonalEdgeStyle;rounded=0;orthogonalLoop=1;jettySize=auto;html=1;exitX=0.5;exitY=1;exitDx=0;exitDy=0;entryX=0;entryY=0.5;entryDx=0;entryDy=0;" parent="1" source="4KFAD_NUksjX8W6mWiC6-61" target="4KFAD_NUksjX8W6mWiC6-63" edge="1">
          <mxGeometry relative="1" as="geometry" />
        </mxCell>
        <mxCell id="4KFAD_NUksjX8W6mWiC6-61" value="Modify User Data" style="rounded=1;whiteSpace=wrap;html=1;fillColor=#dae8fc;gradientColor=#7ea6e0;strokeColor=#6c8ebf;" parent="1" vertex="1">
          <mxGeometry x="169.25" y="741" width="95.5" height="45" as="geometry" />
        </mxCell>
        <mxCell id="4KFAD_NUksjX8W6mWiC6-66" style="edgeStyle=orthogonalEdgeStyle;rounded=0;orthogonalLoop=1;jettySize=auto;html=1;exitX=0.5;exitY=1;exitDx=0;exitDy=0;entryX=1;entryY=0.5;entryDx=0;entryDy=0;" parent="1" source="4KFAD_NUksjX8W6mWiC6-63" target="4KFAD_NUksjX8W6mWiC6-41" edge="1">
          <mxGeometry relative="1" as="geometry" />
        </mxCell>
        <mxCell id="4KFAD_NUksjX8W6mWiC6-63" value="Save-up Modifications" style="rounded=1;whiteSpace=wrap;html=1;fillColor=#dae8fc;gradientColor=#7ea6e0;strokeColor=#6c8ebf;" parent="1" vertex="1">
          <mxGeometry x="523.75" y="791" width="95.5" height="45" as="geometry" />
        </mxCell>
        <mxCell id="4KFAD_NUksjX8W6mWiC6-68" style="edgeStyle=orthogonalEdgeStyle;rounded=0;orthogonalLoop=1;jettySize=auto;html=1;exitX=0.5;exitY=1;exitDx=0;exitDy=0;entryX=1;entryY=0.5;entryDx=0;entryDy=0;" parent="1" source="4KFAD_NUksjX8W6mWiC6-65" target="4KFAD_NUksjX8W6mWiC6-43" edge="1">
          <mxGeometry relative="1" as="geometry" />
        </mxCell>
        <mxCell id="4KFAD_NUksjX8W6mWiC6-65" value="Generate Borrowers Reports" style="rounded=1;whiteSpace=wrap;html=1;fillColor=#dae8fc;gradientColor=#7ea6e0;strokeColor=#6c8ebf;" parent="1" vertex="1">
          <mxGeometry x="523.75" y="908" width="105.25" height="45" as="geometry" />
        </mxCell>
      </root>
    </mxGraphModel>
  </diagram>
</mxfile>
